<svg width="40" height="40" fill="none" xmlns="http://www.w3.org/2000/svg"><path d="M12.802 18.436a10.6 10.6 0 00-2.928-.427c-1.48 0-2.715.338-3.673.752.923-3.38 3.141-9.21 7.558-9.867.41-.06.745-.357.856-.755l.966-3.453a1.049 1.049 0 00-.868-1.322 7.333 7.333 0 00-.988-.067C8.423 3.297 3.172 8.831.956 16.756c-1.3 4.649-1.682 11.638 1.522 16.038 1.793 2.461 4.409 3.776 7.774 3.907l.042.001c4.153 0 7.835-2.797 8.956-6.801a9.245 9.245 0 00-.853-7.07c-1.206-2.142-3.193-3.704-5.595-4.395zM38.8 22.831c-1.207-2.142-3.194-3.704-5.595-4.395a10.6 10.6 0 00-2.928-.427c-1.48 0-2.716.338-3.673.752.923-3.38 3.14-9.21 7.558-9.867.41-.06.744-.357.856-.755l.966-3.453a1.049 1.049 0 00-.868-1.322 7.325 7.325 0 00-.988-.067c-5.302 0-10.553 5.534-12.77 13.459-1.3 4.649-1.681 11.638 1.523 16.038 1.793 2.462 4.409 3.777 7.774 3.908h.042c4.152 0 7.836-2.796 8.956-6.8a9.25 9.25 0 00-.853-7.071z" fill="#9C2B2D"/></svg>