<svg width="16" height="16" fill="none" xmlns="http://www.w3.org/2000/svg"><g clip-path="url(#clip0)" fill="#fff"><path d="M7.216 7.918c.418.278 1.15.278 1.569 0l7.12-4.748a1.726 1.726 0 00-1.629-1.162H1.724c-.754 0-1.396.487-1.63 1.162l7.122 4.748z"/><path d="M9.305 8.698c-.366.244-.836.366-1.305.366-.47 0-.939-.122-1.304-.366L0 4.234v8.034c0 .95.773 1.723 1.724 1.723h12.552c.95 0 1.724-.773 1.724-1.723V4.234L9.305 8.698z"/></g><defs><clipPath id="clip0"><path fill="#fff" d="M0 0h16v16H0z"/></clipPath></defs></svg>