<svg width="16" height="16" fill="none" xmlns="http://www.w3.org/2000/svg"><g clip-path="url(#clip0)"><path d="M15.564 11.742L13.332 9.51c-.798-.798-2.154-.479-2.473.558-.239.718-1.036 1.116-1.754.957-1.595-.399-3.748-2.472-4.147-4.147-.239-.718.24-1.515.957-1.754 1.037-.32 1.356-1.675.558-2.472L4.241.419c-.638-.559-1.595-.559-2.154 0L.572 1.934c-1.515 1.595.16 5.821 3.908 9.57 3.748 3.747 7.974 5.502 9.57 3.907l1.514-1.515c.559-.639.559-1.595 0-2.154z" fill="#fff"/></g><defs><clipPath id="clip0"><path fill="#fff" d="M0 0h16v16H0z"/></clipPath></defs></svg>