<svg width="570" height="630" fill="none" xmlns="http://www.w3.org/2000/svg"><g clip-path="url(#clip0)" fill="#fff"><path d="M210 149.062c3.697 0 7.328-1.505 9.943-4.119a14.178 14.178 0 004.119-9.943c0-3.697-1.505-7.328-4.119-9.943a14.178 14.178 0 00-9.943-4.119 14.178 14.178 0 00-9.943 4.119 14.178 14.178 0 00-4.119 9.943c0 3.697 1.505 7.328 4.119 9.943a14.178 14.178 0 009.943 4.119z"/><path d="M555.938 590.612h-16.876v-42.187c0-7.768-6.295-14.063-14.062-14.063h-8.438v-22.264c0-15.227-9.288-28.317-22.5-33.909v-47.422c0-7.768-6.295-14.063-14.062-14.063-7.767 0-14.062 6.295-14.062 14.063V475.3h-28.126V275.612h28.126v45.5c0 7.767 6.295 14.063 14.062 14.063 7.767 0 14.062-6.296 14.062-14.063v-48.389c13.212-5.592 22.5-18.688 22.5-33.909V216.55H525c7.767 0 14.062-6.295 14.062-14.063V149.05h1.407a14.06 14.06 0 0013.683-10.822 14.06 14.06 0 00-7.372-15.809L216.312-43.519a14.068 14.068 0 00-12.624 0L-126.78 122.42a14.063 14.063 0 00-7.372 15.809 14.06 14.06 0 0013.683 10.822h1.407v53.437c0 7.768 6.295 14.063 14.062 14.063h8.438v22.264c0 15.221 9.288 28.317 22.5 33.903V478.19c-13.212 5.592-22.5 18.682-22.5 33.904v22.269H-105c-7.767 0-14.062 6.295-14.062 14.063v42.187h-16.876c-7.767 0-14.062 6.295-14.062 14.063v56.25c0 7.767 6.295 14.062 14.062 14.062h691.876c7.767 0 14.062-6.295 14.062-14.062v-56.25c0-7.768-6.295-14.063-14.062-14.063zm-76.174-87.187c4.784 0 8.674 3.889 8.674 8.673v22.264h-73.126v-22.264c0-4.784 3.89-8.673 8.674-8.673h55.778zm-124.453 30.937v-22.264c0-15.221-9.289-28.317-22.5-33.909V272.723c13.211-5.592 22.5-18.688 22.5-33.909V216.55h31.877v22.264c0 15.221 9.288 28.317 22.5 33.903v205.472c-13.212 5.592-22.5 18.682-22.5 33.904v22.269h-31.877zm-161.247 0v-22.264c0-15.227-9.294-28.317-22.5-33.909V272.723c13.206-5.592 22.5-18.688 22.5-33.909V216.55h31.877v22.264c0 15.221 9.289 28.317 22.5 33.903v205.472c-13.211 5.592-22.5 18.682-22.5 33.904v22.269h-31.877zm-161.251 0v-22.264c0-15.227-9.29-28.317-22.5-33.909V272.723c13.21-5.592 22.5-18.688 22.5-33.909V216.55h31.876v22.264c0 15.221 9.29 28.317 22.5 33.903v205.472c-13.21 5.592-22.5 18.682-22.5 33.904v22.269H32.813zm-78.75-258.75h28.124V475.3h-28.125V275.612zm161.251 0h28.125V475.3h-28.125V275.612zm50.625-36.798c0 4.784-3.889 8.673-8.673 8.673h-55.783c-4.78 0-8.674-3.889-8.674-8.673V216.55h73.125v22.264h.005zM92.814 512.098c0-4.784 3.89-8.673 8.674-8.673h55.778c4.779 0 8.673 3.889 8.673 8.673v22.264H92.814v-22.264zm183.747-236.486h28.125V475.3h-28.125V275.612zm50.625-36.798c0 4.784-3.889 8.673-8.674 8.673h-55.778c-4.779 0-8.673-3.889-8.673-8.673V216.55h73.125v22.264zm-73.125 273.284c0-4.784 3.889-8.673 8.673-8.673h55.783c4.78 0 8.674 3.889 8.674 8.673v22.264h-73.125v-22.264h-.005zm234.377-273.284c0 4.784-3.89 8.673-8.674 8.673h-55.783c-4.779 0-8.669-3.889-8.669-8.673V216.55h73.126v22.264zM140.154 149.05c7.768 0 14.063-6.295 14.063-14.063 0-7.767-6.295-14.062-14.063-14.062h-201.28L210-15.212l271.126 136.137H284.531c-7.767 0-14.062 6.295-14.062 14.062 0 7.768 6.295 14.063 14.062 14.063h226.407v39.375H-90.937V149.05h231.091zM4.688 216.55v22.264c0 4.784-3.89 8.673-8.674 8.673h-55.778c-4.784 0-8.673-3.889-8.673-8.673V216.55H4.686zm-73.126 295.548c0-4.784 3.89-8.673 8.674-8.673H-3.98c4.78 0 8.668 3.889 8.668 8.673v22.264h-73.124v-22.264zm-22.5 50.389h601.876v28.125H-90.937v-28.125zm632.813 84.375h-663.75v-28.125h663.75v28.125z"/><path d="M480 361.406a14.175 14.175 0 00-9.943 4.12 14.178 14.178 0 00-4.119 9.943c0 3.697 1.505 7.328 4.119 9.942a14.175 14.175 0 009.943 4.12c3.697 0 7.328-1.505 9.943-4.12a14.174 14.174 0 004.119-9.942c0-3.697-1.505-7.328-4.119-9.943a14.175 14.175 0 00-9.943-4.12z"/></g><defs><clipPath id="clip0"><path fill="#fff" transform="translate(-150 -45)" d="M0 0h720v720H0z"/></clipPath></defs></svg>