<svg width="65" height="65" fill="none" xmlns="http://www.w3.org/2000/svg"><path d="M35.802 54.52h-1.27v-1.27c0-3.503-2.847-6.353-6.347-6.353H8.887c-3.5 0-6.348 2.85-6.348 6.353v1.27H1.27A1.27 1.27 0 000 55.79v5.083c0 .702.568 1.27 1.27 1.27h34.532a1.27 1.27 0 001.27-1.27v-5.082a1.27 1.27 0 00-1.27-1.27zM5.078 53.25a3.814 3.814 0 013.809-3.812h19.297c2.1 0 3.81 1.71 3.81 3.812v1.27H5.077v-1.27zm29.454 6.353H2.54v-2.541h31.993v2.54z" fill="#9C2B2D"/><path d="M63.886 55.637l-27.65-27.672 4.793-4.796c.481.17.986.257 1.491.257a4.428 4.428 0 003.143-1.3 4.454 4.454 0 000-6.29l-11.67-11.68a4.446 4.446 0 00-6.285 0 4.455 4.455 0 00-1.042 4.638l-4.793 4.796-1.077-1.078a3.811 3.811 0 00-5.386 0 3.818 3.818 0 000 5.39l1.077 1.079-4.793 4.796a4.446 4.446 0 00-4.633 1.044 4.454 4.454 0 000 6.289l11.67 11.68a4.428 4.428 0 003.142 1.3 4.428 4.428 0 003.142-1.3 4.455 4.455 0 001.043-4.638l4.792-4.796L58.5 61.027a3.795 3.795 0 002.693 1.115c.975 0 1.95-.372 2.693-1.115a3.819 3.819 0 000-5.39zm-24.238-17.07l1.795-1.797 1.796 1.797-1.796 1.796-1.795-1.797zm-7.9-9.703l-2.693-2.696a1.269 1.269 0 10-1.796 1.797l2.693 2.695-1.795 1.797-4.488-4.492a1.26 1.26 0 00-.898-.372 1.272 1.272 0 00-.898 2.169l4.488 4.492-1.795 1.797L13.794 25.27l14.363-14.375L38.93 21.676l-7.182 7.188zm-2.244-22.91a1.897 1.897 0 011.346-.558c.488 0 .976.186 1.347.558l11.67 11.68a1.905 1.905 0 01-2.693 2.695l-11.67-11.68a1.909 1.909 0 010-2.695zm-12.3 10.152a1.272 1.272 0 01.899-2.168c.325 0 .65.123.897.371l1.078 1.078-1.796 1.797-1.077-1.078zm6.016 24.886a1.905 1.905 0 01-2.694 0l-11.67-11.68a1.909 1.909 0 010-2.694 1.897 1.897 0 011.347-.558c.488 0 .975.186 1.346.558l11.67 11.68a1.91 1.91 0 010 2.694zm11.221-11.23l5.207 5.21-1.796 1.798-5.206-5.211 1.795-1.797zm27.65 29.468a1.27 1.27 0 01-1.796 0L43.24 42.16l1.795-1.796 17.057 17.07a1.272 1.272 0 010 1.796z" fill="#9C2B2D"/><path d="M19.18 23.999a1.274 1.274 0 00-.898 2.17c.24.239.558.37.897.37.34 0 .659-.131.899-.37a1.276 1.276 0 000-1.798 1.261 1.261 0 00-.899-.372zM35.802 54.52h-1.27v-1.27c0-3.503-2.847-6.353-6.347-6.353H8.887c-3.5 0-6.348 2.85-6.348 6.353v1.27H1.27A1.27 1.27 0 000 55.79v5.083c0 .702.568 1.27 1.27 1.27h34.532a1.27 1.27 0 001.27-1.27v-5.082a1.27 1.27 0 00-1.27-1.27zM5.078 53.25a3.814 3.814 0 013.809-3.812h19.297c2.1 0 3.81 1.71 3.81 3.812v1.27H5.077v-1.27zm29.454 6.353H2.54v-2.541h31.993v2.54z" fill="#9C2B2D"/><path d="M63.886 55.637l-27.65-27.672 4.793-4.796c.481.17.986.257 1.491.257a4.428 4.428 0 003.143-1.3 4.454 4.454 0 000-6.29l-11.67-11.68a4.446 4.446 0 00-6.285 0 4.455 4.455 0 00-1.042 4.638l-4.793 4.796-1.077-1.078a3.811 3.811 0 00-5.386 0 3.818 3.818 0 000 5.39l1.077 1.079-4.793 4.796a4.446 4.446 0 00-4.633 1.044 4.454 4.454 0 000 6.289l11.67 11.68a4.428 4.428 0 003.142 1.3 4.428 4.428 0 003.142-1.3 4.455 4.455 0 001.043-4.638l4.792-4.796L58.5 61.027a3.795 3.795 0 002.693 1.115c.975 0 1.95-.372 2.693-1.115a3.819 3.819 0 000-5.39zm-24.238-17.07l1.795-1.797 1.796 1.797-1.796 1.796-1.795-1.797zm-7.9-9.703l-2.693-2.696a1.269 1.269 0 10-1.796 1.797l2.693 2.695-1.795 1.797-4.488-4.492a1.26 1.26 0 00-.898-.372 1.272 1.272 0 00-.898 2.169l4.488 4.492-1.795 1.797L13.794 25.27l14.363-14.375L38.93 21.676l-7.182 7.188zm-2.244-22.91a1.897 1.897 0 011.346-.558c.488 0 .976.186 1.347.558l11.67 11.68a1.905 1.905 0 01-2.693 2.695l-11.67-11.68a1.909 1.909 0 010-2.695zm-12.3 10.152a1.272 1.272 0 01.899-2.168c.325 0 .65.123.897.371l1.078 1.078-1.796 1.797-1.077-1.078zm6.016 24.886a1.905 1.905 0 01-2.694 0l-11.67-11.68a1.909 1.909 0 010-2.694 1.897 1.897 0 011.347-.558c.488 0 .975.186 1.346.558l11.67 11.68a1.91 1.91 0 010 2.694zm11.221-11.23l5.207 5.21-1.796 1.798-5.206-5.211 1.795-1.797zm27.65 29.468a1.27 1.27 0 01-1.796 0L43.24 42.16l1.795-1.796 17.057 17.07a1.272 1.272 0 010 1.796z" fill="#9C2B2D"/><path d="M19.18 23.999a1.274 1.274 0 00-.898 2.17c.24.239.558.37.897.37.34 0 .659-.131.899-.37a1.276 1.276 0 000-1.798 1.261 1.261 0 00-.899-.372z" fill="#9C2B2D"/></svg>