<svg width="65" height="65" fill="none" xmlns="http://www.w3.org/2000/svg"><path d="M14.219 8.125h6.094v2.031h-6.094V8.125zm8.125 0h8.125v2.031h-8.125V8.125zm-8.125 4.063h16.25v2.03h-16.25v-2.03zm8.125 6.093h18.281v2.032H22.344V18.28zm4.062 4.063H46.72v2.031H26.406v-2.031zm16.25-4.063h4.063v2.032h-4.063V18.28zm-12.187 8.125h14.218v2.032H30.47v-2.032z" fill="#9C2B2D"/><path d="M63.164 14.663a3.047 3.047 0 00-5.497-1.22l-4.099 5.854h-.755V5.078a3.047 3.047 0 00-3.047-3.047H11.172a3.047 3.047 0 00-3.047 3.047v1.016H5.078A3.047 3.047 0 002.031 9.14v50.78a3.047 3.047 0 003.047 3.048H55.86a3.047 3.047 0 003.047-3.047V22.304l3.758-5.365a3.026 3.026 0 00.5-2.276zm-23.14 31.06L38.36 44.56l15.728-22.463 1.664 1.162-15.728 22.465zm-2.784.532l1.573 1.102-2.437 1.81.864-2.912zm18.01-25.823l1.168-1.663 1.664 1.164-1.165 1.664-1.667-1.165zM40.625 4.062h4.063v6.094l-1.22-1.625a1.053 1.053 0 00-1.624 0l-1.219 1.625V4.062zm-29.453 0h27.422v9.141a1.015 1.015 0 001.828.61l2.234-2.98 2.235 2.98a1.016 1.016 0 001.828-.61v-9.14h3.047a1.016 1.016 0 011.015 1.015v18.2l-5.746 8.206H30.889L17.984 18.58a1.016 1.016 0 00-.718-.298h-7.11V5.078a1.016 1.016 0 011.016-1.016zM5.078 8.125h3.047v10.156H4.062v-9.14a1.016 1.016 0 011.016-1.016zm51.797 51.797a1.015 1.015 0 01-1.016 1.016H5.08a1.016 1.016 0 01-1.016-1.016v-39.61h12.782l12.906 12.906c.19.19.448.298.718.298h13.143l-8.081 11.541c-.063.09-.11.189-.142.294l-1.828 6.156a1.016 1.016 0 001.58 1.102l5.158-3.826c.088-.065.165-.144.227-.233l10.525-15.034h5.824v26.406zm0-28.438h-4.063v-.483l4.063-5.802v6.285zm4.12-15.71l-1.747 2.495-1.662-1.165 1.747-2.496a1.015 1.015 0 011.661 1.166z" fill="#9C2B2D"/><path d="M19.297 42.656a3.051 3.051 0 012.285 1.032l1.524-1.344a5.077 5.077 0 100 6.718l-1.524-1.344a3.046 3.046 0 01-5.324-2.242 3.047 3.047 0 013.039-2.82z" fill="#9C2B2D"/><path d="M19.297 36.563a9.14 9.14 0 109.14 9.14 9.152 9.152 0 00-9.14-9.14zm0 16.25a7.11 7.11 0 117.11-7.11 7.118 7.118 0 01-7.11 7.11z" fill="#9C2B2D"/></svg>