<svg width="65" height="65" fill="none" xmlns="http://www.w3.org/2000/svg"><g clip-path="url(#clip0)" fill="#9C2B2D"><path d="M47.372 2.555L9.865.045A2.225 2.225 0 007.5 2.116L7.207 6.5H2.222A2.224 2.224 0 000 8.723v54.014c0 1.225.997 2.222 2.222 2.222H30.93a.962.962 0 00.672-.277l4.334-4.315c.044.01.089.017.135.02l7.399.495c1.181.078 2.286-.883 2.365-2.069L49.441 4.92a2.24 2.24 0 00-2.069-2.365zM31.883 61.702v-6.614c0-.175.143-.317.317-.317h6.59l-6.907 6.931zm12.053-3.016c-.031.192-.144.29-.338.296l-5.875-.393 4.03-4.014a.952.952 0 00.281-.674V8.723a2.224 2.224 0 00-2.221-2.221H29.91c-1.23 0-1.23 1.904 0 1.904h9.902c.175 0 .317.142.317.317v44.143H32.2a2.224 2.224 0 00-2.221 2.222v7.967H2.222a.318.318 0 01-.318-.318V8.723c0-.175.143-.317.318-.317H24.84c1.23 0 1.23-1.904 0-1.904H9.115l.285-4.26c.031-.192.144-.29.338-.296l37.507 2.509c.192.03.29.143.296.337l-3.605 53.894z"/><path d="M34.001 30.094H8.033a.952.952 0 000 1.904H34a.952.952 0 100-1.904zm0 6.638H8.033a.952.952 0 000 1.904H34a.952.952 0 100-1.904zM7.08 24.408c0 .526.427.952.953.952H34a.952.952 0 000-1.904H8.033a.952.952 0 00-.952.952zm4.575-6.638c0 .526.427.953.952.953h16.82a.952.952 0 000-1.905h-16.82a.952.952 0 00-.952.952zm13.07 37.935a4398.377 4398.377 0 01-6.864.013c-1.043.001-1.746-.208-1.98-1.355-.197-.97-1.569-.84-1.836 0-.659 2.074-1.748 1.261-2.359-.134-.609-1.392-.765-2.95-1.03-4.43-.196-1.09-1.842-.784-1.871.252-.038 1.365-.165 2.709-.512 4.032-.357 1.366-.893 2.679-1.424 3.983-.464 1.138 1.38 1.627 1.836.507.47-1.157.943-2.32 1.294-3.519.652 1.57 2.002 3.344 3.926 2.298a3.82 3.82 0 00.986-.793c1 1.156 2.49 1.064 3.882 1.063l5.952-.012c1.225-.004 1.227-1.908 0-1.905zM64.23 31.286c-.495-.492-1.175-.745-1.866-.763l-.72.003v-1.36c0-.83-.492-1.705-1.197-2.141v-1.917c0-3.944-6.141-3.927-6.141.018v1.918a2.516 2.516 0 00-1.2 2.139v1.394c-3.17.216-3.179 5.046.003 5.235.02 4.262.02 8.455-.003 12.788-.007 1.196 1.898 1.266 1.904.01.023-4.337.024-8.533.004-12.8l4.724-.023s-.006 14.073-.006 20.412c0 3.09-4.725 3.11-4.725-.032l.001-1.736c.075-1.23-1.826-1.344-1.9-.115v1.63c0 1.396.431 2.579 1.267 3.41a7.963 7.963 0 002.332 5.327c.407.404.97.28 1.364-.023a7.852 7.852 0 002.307-5.385c.629-.626 1.258-1.256 1.258-3.414v-8.678c1.647.469 3.364-.806 3.364-2.532V33.14c0-.701-.273-1.36-.77-1.854zm-9.22-.727v-1.376a.61.61 0 01.454-.588l3.811-.02a.602.602 0 01.465.59v1.37l-4.73.024zm2.37-6.602c.585 0 1.163.574 1.163 1.15v1.546l-2.333.011v-1.538c0-.641.525-1.165 1.17-1.169zm0 38.583a6.073 6.073 0 01-.942-2.083c.295.064.594.097.892.097.334 0 .667-.041.996-.121a5.936 5.936 0 01-.946 2.107zm5.717-17.888c0 .902-1.454.973-1.454.017l.002-9.837a.96.96 0 00-.959-.953l-7.413.037c-.919 0-.898-1.439.01-1.443l9.092-.045c.44.037.68.275.722.713v11.511z"/></g><defs><clipPath id="clip0"><path fill="#fff" d="M0 0h65v65H0z"/></clipPath></defs></svg>