<svg width="65" height="65" fill="none" xmlns="http://www.w3.org/2000/svg"><path d="M6.657 39.733A26.9 26.9 0 015.67 32.5c0-6.32 2.224-12.398 6.28-17.227a8.776 8.776 0 006.152 2.514c4.856 0 8.807-3.95 8.807-8.807 0-.917-.142-1.802-.403-2.634a26.868 26.868 0 015.993-.675c6.508 0 12.632 2.281 17.48 6.468h-2.057a1.58 1.58 0 00-1.579 1.579v2.514c0 .87.709 1.578 1.579 1.578h10.1c.94 0 1.703-.764 1.703-1.704v-10.1a1.58 1.58 0 00-1.578-1.578h-2.514a1.58 1.58 0 00-1.578 1.578V8.17C48.123 2.885 40.55 0 32.5 0c-3.34 0-6.627.502-9.773 1.49A8.752 8.752 0 0018.103.173c-4.856 0-8.806 3.95-8.806 8.806 0 1.77.526 3.418 1.428 4.8A28.647 28.647 0 003.772 32.5c0 2.523.327 5.023.972 7.438l-1.793.543A30.681 30.681 0 011.899 32.5c0-6.491 1.993-12.677 5.764-17.888a.95.95 0 10-1.539-1.114C2.118 19.037 0 25.608 0 32.5c0 2.99.407 5.954 1.208 8.808.215.835 1.163 1.354 1.98 1.086l2.406-.73a1.585 1.585 0 001.063-1.93zm47.67-28.683a.95.95 0 001.628-.664V6.327h1.872v9.584h-9.584v-1.873h4.129a.95.95 0 00.68-1.612C47.615 6.846 40.316 3.772 32.5 3.772c-2.29 0-4.566.271-6.774.807a8.85 8.85 0 00-1.216-1.631 30.766 30.766 0 017.99-1.049c8.293 0 16.045 3.25 21.827 9.151zM18.103 2.073A6.915 6.915 0 0125.01 8.98a6.915 6.915 0 01-6.907 6.907 6.915 6.915 0 01-6.907-6.907 6.915 6.915 0 016.907-6.907zm36.035 52.065c-5.78 5.78-13.464 8.963-21.638 8.963-4.287 0-8.427-.863-12.306-2.564a.95.95 0 10-.763 1.739A32.333 32.333 0 0032.5 65c8.681 0 16.843-3.38 22.98-9.52a.95.95 0 10-1.342-1.342z" fill="#9C2B2D"/><path d="M63.719 23.437a1.57 1.57 0 00-.77-.953 1.566 1.566 0 00-1.218-.116l-2.4.75a1.585 1.585 0 00-1.047 1.939 26.895 26.895 0 011.042 7.84c-.104 7.225-3.012 13.95-8.187 18.936-5.182 4.994-12.023 7.652-19.261 7.49-6.271-.143-12.176-2.421-16.862-6.465h2.062a1.58 1.58 0 001.578-1.579v-2.514a1.58 1.58 0 00-1.578-1.578h-10.1c-.94 0-1.704.764-1.704 1.704v10.1c0 .87.708 1.578 1.578 1.578h2.515a1.58 1.58 0 001.578-1.579v-2.16a32.424 32.424 0 004.578 3.401.95.95 0 10.993-1.618 30.61 30.61 0 01-5.842-4.663.95.95 0 00-1.628.665v4.055H7.173v-9.584h9.584v1.873h-4.133a.95.95 0 00-.68 1.612c5.265 5.407 12.33 8.479 19.89 8.65.226.005.451.008.676.008 7.499 0 14.56-2.836 19.947-8.028C58 47.86 61.113 40.66 61.225 32.924a28.805 28.805 0 00-1.03-8.087l1.788-.558a30.663 30.663 0 011.118 8.221c0 6.733-2.132 13.105-6.164 18.428a.95.95 0 001.514 1.147C62.735 46.42 65 39.65 65 32.5c0-3.08-.431-6.13-1.281-9.063z" fill="#9C2B2D"/><path d="M18.022 45.849h29.207a3.216 3.216 0 003.213-3.213V23.351a3.216 3.216 0 00-3.213-3.212h-1.048a6.442 6.442 0 00-5.996-4.131c-.195 0-.388.01-.582.028-.448-3.103-3.124-5.495-6.349-5.495a6.424 6.424 0 00-6.416 6.416c0 1.122.3 2.22.848 3.182h-9.664a3.216 3.216 0 00-3.213 3.212v5.079h-.16a2.218 2.218 0 00-2.215 2.215v4.697c0 1.222.994 2.216 2.215 2.216h.16v5.078a3.216 3.216 0 003.213 3.213zm26.06-25.71h-5.253a6.326 6.326 0 00.766-2.192c.195-.026.392-.04.59-.04 1.623 0 3.098.878 3.896 2.232zm-15.345-3.182a4.522 4.522 0 014.517-4.517 4.522 4.522 0 014.518 4.517c0 1.205-.466 2.33-1.313 3.182h-6.41a4.471 4.471 0 01-1.312-3.182zM16.708 26.2h.866a.95.95 0 100-1.899h-.866v-.949c0-.724.59-1.313 1.314-1.313h29.207c.725 0 1.314.589 1.314 1.313v19.285c0 .724-.59 1.314-1.314 1.314H18.022c-.724 0-1.314-.59-1.314-1.314v-.949h.866a.95.95 0 100-1.9h-.866v-2.23h6.358a2.218 2.218 0 002.215-2.215v-4.697a2.218 2.218 0 00-2.215-2.216h-6.358V26.2zm-2.375 9.143v-4.697c0-.174.142-.316.316-.316h8.417c.174 0 .316.142.316.316v4.698a.317.317 0 01-.317.316H14.65a.317.317 0 01-.316-.316zm1.204-22.214c.545.352.967.518 1.445.592v.16a.95.95 0 101.9 0v-.262c1.098-.371 1.8-1.35 1.963-2.318.225-1.338-.5-2.546-1.802-3.006-.66-.233-1.386-.513-1.781-.823-.06-.047-.102-.205-.067-.39.018-.094.1-.413.414-.507.692-.208 1.131.138 1.18.178l-.016-.014.263.11c.933.39 1.73-.78 1.025-1.506-.232-.213-.644-.472-1.18-.618v-.144a.95.95 0 10-1.899 0v.203c-.85.288-1.48 1.026-1.653 1.947-.166.88.125 1.737.76 2.236.61.478 1.476.82 2.32 1.118.558.197.614.599.563.901-.071.426-.43.885-1.047.89-.69.004-.872-.024-1.385-.36a.95.95 0 00-1.372.374c-.219.439-.043.973.369 1.239z" fill="#9C2B2D"/><path d="M19.614 32.17h-1.511a.95.95 0 000 1.9h1.511a.95.95 0 000-1.9zm9.53-5.97h3.248a.95.95 0 000-1.9h-3.248a.95.95 0 100 1.9zm7.424 0h3.248a.95.95 0 000-1.9h-3.248a.95.95 0 100 1.9zm-10.65-.95a.95.95 0 00-.95-.95h-3.247a.95.95 0 100 1.9h3.248a.95.95 0 00.95-.95zm17.918.95h.866v.866a.95.95 0 001.9 0v-1.187a1.58 1.58 0 00-1.579-1.579h-1.187a.95.95 0 000 1.9zm1.815 4.184a.95.95 0 00-.95.95v3.343a.95.95 0 101.9 0v-3.343a.95.95 0 00-.95-.95zm-1.815 11.303h1.187a1.58 1.58 0 001.578-1.578v-1.187a.95.95 0 10-1.9 0v.866h-.865a.95.95 0 100 1.9zm-18.993-1.899h-3.248a.95.95 0 000 1.9h3.248a.95.95 0 100-1.9zm4.175 1.899h3.248a.95.95 0 100-1.899H29.02a.95.95 0 100 1.9zm7.424 0h3.248a.95.95 0 100-1.899h-3.248a.95.95 0 100 1.9z" fill="#9C2B2D"/></svg>