<svg width="65" height="65" fill="none" xmlns="http://www.w3.org/2000/svg"><path d="M25.39 47.732a22.201 22.201 0 01-15.8-6.543 22.194 22.194 0 01-6.543-15.8A22.197 22.197 0 019.59 9.59a22.201 22.201 0 0115.8-6.543 22.201 22.201 0 0115.8 6.543c8.712 8.712 8.712 22.887 0 31.598a22.198 22.198 0 01-15.8 6.544zm0-42.654a20.183 20.183 0 00-14.363 5.949A20.178 20.178 0 005.078 25.39a20.18 20.18 0 005.949 14.363A20.181 20.181 0 0025.39 45.7a20.183 20.183 0 0014.364-5.948c7.92-7.92 7.92-20.806 0-28.725a20.18 20.18 0 00-14.364-5.95z" fill="#9C2B2D"/><path d="M25.39 50.78c-6.782 0-13.158-2.642-17.954-7.436C2.641 38.549.001 32.172 0 25.39c0-6.783 2.642-13.16 7.436-17.954C12.233 2.642 18.61 0 25.391 0c6.782 0 13.158 2.642 17.954 7.436 9.899 9.9 9.899 26.007 0 35.907-4.797 4.795-11.173 7.436-17.954 7.436zm0-48.749A23.216 23.216 0 008.873 8.872a23.21 23.21 0 00-6.84 16.518 23.216 23.216 0 006.84 16.518 23.211 23.211 0 0016.519 6.84c6.239 0 12.105-2.43 16.518-6.84 9.107-9.108 9.107-23.928 0-33.035a23.21 23.21 0 00-16.52-6.842z" fill="#9C2B2D"/><path d="M46.725 50.613c-.26 0-.52-.1-.718-.298l-5.594-5.595a1.014 1.014 0 111.436-1.436l5.594 5.595a1.014 1.014 0 01-.718 1.734zm2.872-2.873c-.26 0-.52-.099-.718-.297l-5.6-5.601a1.015 1.015 0 111.436-1.436l5.6 5.6a1.014 1.014 0 01-.718 1.734z" fill="#9C2B2D"/><path d="M45.289 52.049a1.014 1.014 0 01-.718-1.734l5.744-5.746a1.015 1.015 0 111.436 1.436l-5.744 5.746a1.013 1.013 0 01-.718.298z" fill="#9C2B2D"/><path d="M57.05 63.81c-.26 0-.52-.1-.718-.298L44.57 51.752a1.015 1.015 0 111.436-1.437l11.76 11.761a1.014 1.014 0 01-.717 1.734zm5.744-5.744c-.26 0-.52-.099-.718-.297L50.315 46.005a1.014 1.014 0 111.436-1.437l11.761 11.765a1.015 1.015 0 01-.718 1.733z" fill="#9C2B2D"/><path d="M59.923 65a5.049 5.049 0 01-3.591-1.488 1.015 1.015 0 111.436-1.436c1.15 1.15 3.157 1.154 4.307 0 .576-.575.894-1.34.894-2.155a3.02 3.02 0 00-.892-2.151 1.015 1.015 0 111.434-1.438 5.039 5.039 0 011.49 3.589c0 1.357-.53 2.632-1.489 3.591A5.042 5.042 0 0159.924 65zm-43.66-21.31a1.015 1.015 0 01-1.015-1.015 3.05 3.05 0 013.046-3.047 1.015 1.015 0 110 2.03c-.56 0-1.015.456-1.015 1.017 0 .56-.455 1.015-1.016 1.015z" fill="#9C2B2D"/><path d="M16.263 45.625a1.014 1.014 0 01-1.015-1.016v-1.934a1.014 1.014 0 112.03 0v1.934c0 .562-.454 1.016-1.015 1.016zm18.281-1.935a1.015 1.015 0 01-1.015-1.015c0-.561-.455-1.016-1.016-1.016a1.015 1.015 0 110-2.031 3.05 3.05 0 013.047 3.047c0 .56-.455 1.015-1.016 1.015z" fill="#9C2B2D"/><path d="M34.544 45.675a1.015 1.015 0 01-1.015-1.016v-1.984a1.014 1.014 0 112.031 0v1.984c0 .56-.455 1.016-1.016 1.016zm-2.031-4.016H18.294a1.015 1.015 0 110-2.031h14.22a1.015 1.015 0 110 2.03z" fill="#9C2B2D"/><path d="M23.853 41.658a1.015 1.015 0 01-1.016-1.016V18.297a1.015 1.015 0 112.032 0v22.345c0 .56-.454 1.016-1.016 1.016zm3.046 0a1.015 1.015 0 01-1.016-1.016V18.297a1.015 1.015 0 112.032 0v22.345c0 .56-.454 1.016-1.016 1.016zm0-27.933a1.015 1.015 0 01-1.016-1.015.51.51 0 00-.508-.508.51.51 0 00-.507.508 1.015 1.015 0 11-2.032 0 2.542 2.542 0 012.54-2.54c1.4 0 2.539 1.139 2.539 2.54 0 .56-.454 1.015-1.016 1.015zm10.169 5.587a1.015 1.015 0 110-2.031.51.51 0 00.508-.508.51.51 0 00-.508-.508 1.015 1.015 0 110-2.03c1.4 0 2.54 1.138 2.54 2.538s-1.14 2.54-2.54 2.54zm-23.356 0a2.541 2.541 0 01-2.54-2.539c0-1.4 1.14-2.539 2.54-2.539a1.014 1.014 0 110 2.031.51.51 0 00-.508.508c0 .28.229.508.508.508.562 0 1.015.454 1.015 1.016 0 .561-.453 1.015-1.015 1.015z" fill="#9C2B2D"/><path d="M37.068 16.266H13.78a1.015 1.015 0 110-2.03h23.288a1.015 1.015 0 110 2.03zm0 3.046H13.78a1.015 1.015 0 110-2.031h23.288a1.015 1.015 0 110 2.031z" fill="#9C2B2D"/><path d="M23.852 16.266a1.015 1.015 0 01-1.016-1.015V12.71a1.015 1.015 0 112.032 0v2.54c0 .561-.454 1.016-1.016 1.016zm3.047-.001a1.015 1.015 0 01-1.016-1.015v-2.54a1.015 1.015 0 112.032 0v2.54c0 .56-.454 1.015-1.016 1.015zM14.22 33.532a5.084 5.084 0 01-5.077-5.078 1.015 1.015 0 112.03 0 3.05 3.05 0 003.048 3.047 3.05 3.05 0 003.047-3.047 1.015 1.015 0 112.03 0 5.085 5.085 0 01-5.077 5.078z" fill="#9C2B2D"/><path d="M18.283 29.47h-8.125a1.015 1.015 0 110-2.032h8.125a1.014 1.014 0 110 2.032z" fill="#9C2B2D"/><path d="M10.159 29.47a1.016 1.016 0 01-.943-1.392l4.063-10.158a1.016 1.016 0 011.887.754L11.102 28.83a1.02 1.02 0 01-.943.639z" fill="#9C2B2D"/><path d="M18.284 29.47c-.403 0-.784-.241-.944-.64l-4.06-10.155a1.016 1.016 0 011.887-.754l4.061 10.157a1.015 1.015 0 01-.943 1.392zm18.302 4.062a5.084 5.084 0 01-5.078-5.078 1.015 1.015 0 112.031 0 3.05 3.05 0 003.047 3.047 3.05 3.05 0 003.047-3.047 1.015 1.015 0 112.031 0 5.085 5.085 0 01-5.078 5.078z" fill="#9C2B2D"/><path d="M40.648 29.47h-8.125a1.015 1.015 0 110-2.032h8.125a1.014 1.014 0 110 2.032z" fill="#9C2B2D"/><path d="M32.523 29.47a1.016 1.016 0 01-.943-1.392l4.064-10.158a1.016 1.016 0 011.887.754L33.467 28.83c-.159.396-.54.639-.944.639z" fill="#9C2B2D"/><path d="M40.648 29.47c-.402 0-.784-.241-.943-.64l-4.061-10.156a1.016 1.016 0 111.887-.754l4.061 10.157a1.015 1.015 0 01-.944 1.392z" fill="#9C2B2D"/></svg>