<svg width="65" height="65" fill="none" xmlns="http://www.w3.org/2000/svg"><path d="M15.166 39.197h15.167V28.364H15.167v10.833zm2.167-2.167v-3.25h10.834v3.25H17.332zm10.834-6.5v1.084H17.332V30.53h10.834zm-13.001 13v13h15.167v-13H15.167zm6.5 2.167v3.25h-4.333v-3.25h4.334zm-4.333 5.417h4.334v3.25h-4.334v-3.25zm6.5 3.25v-3.25h4.334v3.25h-4.334zm4.334-5.417h-4.334v-3.25h4.334v3.25zm6.499-9.75h15.167V28.364H34.667v10.833zm2.167-2.167v-1.083h10.834v1.083H36.832zm10.834-6.5v3.25H36.832v-3.25h10.834z" fill="#9C2B2D"/><path d="M63.917 52.197c-.6 0-1.084.485-1.084 1.083v1.084H61.75V53.28a1.083 1.083 0 10-2.167 0v1.084H58.5V32.476a4.306 4.306 0 001.761.393 4.344 4.344 0 004.316-4.682 4.352 4.352 0 00-1.648-3.069L35.449 3.624 32.5.886l-2.878 2.678-27.55 21.554a4.344 4.344 0 00-1.648 3.07 4.344 4.344 0 001.145 3.29 4.3 4.3 0 004.932 1v21.887H5.417V53.28a1.083 1.083 0 10-2.167 0v1.084H2.167V53.28a1.083 1.083 0 10-2.167 0v9.75a1.083 1.083 0 102.167 0v-1.083H3.25v1.084a1.083 1.083 0 102.167 0v-1.084H6.5v2.167h52v-2.167h1.083v1.084a1.083 1.083 0 102.167 0v-1.084h1.083v1.084a1.083 1.083 0 102.167 0v-9.75c0-.6-.484-1.085-1.083-1.085zM3.155 30.003a2.141 2.141 0 01-.571-1.645 2.14 2.14 0 01.824-1.534L31.027 5.212l1.474-1.37 1.543 1.428 27.549 21.554c.483.378.776.923.824 1.534a2.144 2.144 0 01-.57 1.645 2.156 2.156 0 01-2.91.241l-.437-.335-26-20.042L6.922 29.584l-.857.66a2.156 2.156 0 01-2.91-.241zM2.167 59.78v-3.25H3.25v3.25H2.167zm3.25 0v-3.25H6.5v3.25H5.417zm31.416 2.167v-16.25h10.834v16.25H36.833zm19.5 0h-6.5V43.53H34.667v18.417h-26V30.973L32.5 12.602l23.833 18.373v30.973zM58.5 59.78v-3.25h1.083v3.25H58.5zm3.25 0v-3.25h1.083v3.25H61.75z" fill="#9C2B2D"/></svg>