<svg width="65" height="65" fill="none" xmlns="http://www.w3.org/2000/svg"><path d="M42.524 17.495H11.396a.956.956 0 100 1.912h31.128a.956.956 0 100-1.912zm-31.128-4.721H26.96a.956.956 0 100-1.912H11.396a.956.956 0 100 1.912zm31.128 10.598H11.396a.956.956 0 100 1.912h31.128a.956.956 0 100-1.912z" fill="#9C2B2D"/><path d="M18.487 58.356H8.525a2.969 2.969 0 01-2.965-2.965V4.878a2.969 2.969 0 012.965-2.966h28.699c.092 0 .184.009.274.021v5.963a4.883 4.883 0 004.878 4.878h5.963c.012.09.02.182.02.275v16.283a.956.956 0 101.913 0V13.049a3.902 3.902 0 00-1.15-2.777L40 1.15A3.9 3.9 0 0037.224 0H8.525a4.883 4.883 0 00-4.878 4.878V55.39a4.883 4.883 0 004.878 4.878h9.962a.956.956 0 100-1.913zm28.52-47.494h-4.631a2.969 2.969 0 01-2.966-2.966V3.265l7.597 7.597z" fill="#9C2B2D"/><path d="M61.06 46.811l-8.103-13.675a2.096 2.096 0 00-2.873-.736l-1.97 1.168a3.744 3.744 0 00-1.651 4.365 2.932 2.932 0 01-2.063-.022c-1.556-.49-2.739-1.475-4.692-.98-3.318.844-3.217.802-3.517.905-1.942-1.106-3.11-1.435-5.172-.638l-1.838.71a2.94 2.94 0 01-2.575-.214l-.502-.296a3.736 3.736 0 00-1.782-3.83L22.35 32.4a2.1 2.1 0 00-2.873.735L11.376 46.81a2.096 2.096 0 00.735 2.873l1.97 1.168a3.715 3.715 0 001.9.521 3.77 3.77 0 002.042-.603l.411.242-.867 1.208a3.205 3.205 0 003.102 5.035 3.196 3.196 0 001.288 2.064c.669.48 1.501.698 2.368.561a3.203 3.203 0 004.423 2.405 3.187 3.187 0 001.119 1.449 3.21 3.21 0 004.328-.548l2.304 1.365a3.205 3.205 0 004.393-1.124c.232-.39.375-.815.427-1.252l.006.003a3.21 3.21 0 004.832-2.522A3.213 3.213 0 0049.7 58.18c.243-.41.383-.852.43-1.297a3.212 3.212 0 003.929-1.352c.436-.737.56-1.6.348-2.43a3.193 3.193 0 00-.652-1.27l1.27-.741a3.73 3.73 0 003.328-.238l1.97-1.168a2.095 2.095 0 00.736-2.873zm-46.003 2.396l-1.97-1.168a.185.185 0 01-.066-.253l8.102-13.676a.185.185 0 01.253-.065l1.971 1.168a1.826 1.826 0 01.64 2.501l-6.429 10.852a1.828 1.828 0 01-2.501.64zm4.36 5.934a1.293 1.293 0 01-.296-1.806l1.274-1.775a1.298 1.298 0 011.806-.297c.58.416.712 1.226.296 1.806l-1.274 1.775a1.295 1.295 0 01-1.806.297zm3.655 2.624a1.295 1.295 0 01-.296-1.806l1.275-1.775 1.406-1.959a1.285 1.285 0 011.054-.54 1.29 1.29 0 011.274 1.085c.056.34-.024.683-.226.964l-2.681 3.735a1.293 1.293 0 01-1.805.296zm3.656 2.624a1.295 1.295 0 01-.297-1.804v-.001l2.682-3.735a1.295 1.295 0 011.805-.296c.58.416.713 1.226.297 1.805l-1.192 1.66-1.49 2.075a1.295 1.295 0 01-1.805.296zm4.254 1.791a1.296 1.296 0 01-.297-1.804l.892-1.243a1.295 1.295 0 011.805-.296c.58.416.713 1.226.297 1.805l-.892 1.242a1.295 1.295 0 01-1.805.297zm21.432-7.623a1.296 1.296 0 01-1.773.454c-1.04-.616-7.75-4.59-8.464-5.015a.956.956 0 10-.975 1.645l6.399 3.791a1.294 1.294 0 11-1.32 2.228l-6.402-3.793a.956.956 0 10-.975 1.645l4.715 2.794a1.294 1.294 0 11-1.32 2.227l-2.53-1.499h-.002l-1.846-1.095a.956.956 0 10-.975 1.645l1.847 1.094v.001a1.294 1.294 0 11-1.32 2.227L35.32 61.63a3.21 3.21 0 00-.821-4.346 3.187 3.187 0 00-1.332-.556A3.211 3.211 0 0032.033 53a3.194 3.194 0 00-2.365-.561 3.183 3.183 0 00-1.29-2.063 3.212 3.212 0 00-4.149.35 3.186 3.186 0 00-.913-1.015 3.212 3.212 0 00-3.545-.13l-.438-.258 6.014-10.151.286.169a4.841 4.841 0 004.238.352l1.838-.71c1.051-.407 1.631-.434 2.672.057a4.28 4.28 0 00-1.085 2.851v4.24c0 1.126.916 2.042 2.04 2.043h.004a4.2 4.2 0 002.988-1.237 4.21 4.21 0 001.015-1.625l12.617 7.472c.298.176.509.458.594.793.086.334.036.682-.14.98zm6.935-6.518l-1.97 1.168a1.828 1.828 0 01-2.502-.64l-3.013-5.087a.957.957 0 00-1.646.975l3.014 5.086c.056.096.118.187.182.276l-.838.49c-.17.1-.332.21-.488.33l-12.99-7.693a.957.957 0 00-1.444.823c-.01.057.1 1.04-.678 1.817a2.3 2.3 0 01-1.637.677h-.001a.13.13 0 01-.13-.13v-4.24c0-1.108.762-2.042 1.793-2.303l3.175-.804c1.153-.291 1.804.324 3.53.908 1.197.463 2.5.435 3.656-.059l.577.974a.956.956 0 101.645-.974l-1.136-1.919a1.825 1.825 0 01.64-2.501l1.97-1.168a.184.184 0 01.254.065l8.102 13.676a.184.184 0 01-.065.253z" fill="#9C2B2D"/></svg>