<svg width="65" height="65" fill="none" xmlns="http://www.w3.org/2000/svg"><path d="M61.953 18.281h-7.11v-5.078a5.078 5.078 0 00-5.077-5.078h-9.141V5.078a3.056 3.056 0 00-3.047-3.047h-32.5a3.056 3.056 0 00-3.047 3.047v54.844a3.056 3.056 0 003.047 3.047h32.5a3.068 3.068 0 002.326-1.097 4.045 4.045 0 006.815-2.966V46.72H57.89a5.078 5.078 0 005.078-5.078V19.297a1.016 1.016 0 00-1.016-1.016zm-23.36 41.64a1.016 1.016 0 01-1.015 1.017h-32.5a1.016 1.016 0 01-1.016-1.016V5.078a1.016 1.016 0 011.016-1.016h32.5a1.016 1.016 0 011.016 1.016v54.844zm6.094-1.015a2.032 2.032 0 11-4.062 0v-48.75h4.063v48.75zm2.032-14.218V10.156h3.047a3.056 3.056 0 013.047 3.047v28.438a5.001 5.001 0 001.046 3.047h-7.14zm14.218-3.047a3.047 3.047 0 11-6.093 0V20.313h6.093V41.64z" fill="#9C2B2D"/><path d="M8.125 8.125h2.031v2.031H8.125V8.125zm4.063 0H34.53v2.031H12.188V8.125zm-4.063 6.094h26.406v2.031H8.125v-2.031zm0 6.094h26.406v2.03H8.125v-2.03zm0 6.093h26.406v2.032H8.125v-2.032zm22.756 11.26l-9.14-4.063a1.015 1.015 0 00-.825 0l-9.14 4.063a1.016 1.016 0 00-.604.928v6.508a9.146 9.146 0 003.068 6.831l6.413 5.702a1.016 1.016 0 001.35 0l6.413-5.702a9.147 9.147 0 003.068-6.831v-6.508a1.016 1.016 0 00-.603-.928zm-9.553 17.85l-4.691-4.17a3.066 3.066 0 012.66-1.58h4.062a3.067 3.067 0 012.66 1.58l-4.69 4.17zm2.031-12.86h-.801a3.036 3.036 0 01-1.69-.508l-1.502-1.001a2.032 2.032 0 013.993.494v1.015zm-3.618 1.178a5.07 5.07 0 002.817.853h.801v1.016a2.03 2.03 0 11-4.062 0v-2.165l.444.296zm9.712 1.268a7.11 7.11 0 01-1.91 4.84 5.019 5.019 0 00-2.825-2.012 4.03 4.03 0 00.673-2.227v-4.062a4.062 4.062 0 00-8.125 0v4.062c0 .792.234 1.567.672 2.227a5.018 5.018 0 00-2.825 2.012 7.109 7.109 0 01-1.91-4.84v-5.848l8.125-3.612 8.125 3.612v5.848z" fill="#9C2B2D"/></svg>